<?xml version="1.0" encoding="UTF-8" standalone="no"?>
<svg
   xmlns:dc="http://purl.org/dc/elements/1.1/"
   xmlns:cc="http://creativecommons.org/ns#"
   xmlns:rdf="http://www.w3.org/1999/02/22-rdf-syntax-ns#"
   xmlns:svg="http://www.w3.org/2000/svg"
   xmlns="http://www.w3.org/2000/svg"
   xmlns:sodipodi="http://sodipodi.sourceforge.net/DTD/sodipodi-0.dtd"
   xmlns:inkscape="http://www.inkscape.org/namespaces/inkscape"
   width="100%"
   height="100%"
   version="1.1"
   viewBox="174.377948760986 149.181098937988 627.009566966735 407.15382637555"
   style="background-color:#FFFFFF"
   id="svg3983"
   sodipodi:docname="Vector_diagram_of_laboratory_mouse_(black_and_white).svg"
   inkscape:version="0.92.3 (2405546, 2018-03-11)">
  <metadata
     id="metadata3987">
    <rdf:RDF>
      <cc:Work
         rdf:about="">
        <dc:format>image/svg+xml</dc:format>
        <dc:type
           rdf:resource="http://purl.org/dc/dcmitype/StillImage" />
        <dc:title></dc:title>
      </cc:Work>
    </rdf:RDF>
  </metadata>
  <sodipodi:namedview
     pagecolor="#ffffff"
     bordercolor="#666666"
     borderopacity="1"
     objecttolerance="10"
     gridtolerance="10"
     guidetolerance="10"
     inkscape:pageopacity="0"
     inkscape:pageshadow="2"
     inkscape:window-width="1286"
     inkscape:window-height="912"
     id="namedview3985"
     showgrid="false"
     inkscape:zoom="1.0182338"
     inkscape:cx="354.43026"
     inkscape:cy="313.83879"
     inkscape:window-x="0"
     inkscape:window-y="0"
     inkscape:window-maximized="0"
     inkscape:current-layer="svg3983" />
  <defs
     id="defs3856" />
  <g
     id="g5921"
     transform="translate(26.369799,23.616027)">
    <path
       sodipodi:nodetypes="sscccccccscsccccccccccccccccccccccssccccccccccccssccccccsccccccccccsssssccsssscss"
       inkscape:connector-curvature="0"
       id="path3872"
       d="m 514.98265,127.56738 c -11.74566,-0.017 -23.93674,1.45196 -36.53516,4.60157 -24.92864,6.23215 -64.58999,24.41219 -88.05664,38.49218 -6.04281,3.62578 -11.4404,4.00338 -25.16211,5.2168 l 0.15234,1.16406 c -8.30616,-5.30339 -19.34324,-5.0549 -28.87695,2.23828 -6.30438,0.89061 -12.00418,1.4091 -17.39453,2.14649 l 3.36328,-1.61133 c -4.62332,-3.77759 8.77699,-27.1453 5.35352,-33.99219 -2.80645,-5.61293 -7.73758,-7.79163 -12.87696,-7.70508 -5.13938,0.0866 -10.48599,2.43924 -14.12109,5.89258 -15.18096,14.42179 -15.80739,25.83524 -19.34375,44.93164 -0.87635,4.73229 1.61169,6.44613 -5.72266,12.54102 -38.4758,28.4615 -82.79964,78.46343 -96.29297,108.8125 -3.23503,8.89633 -4.0614,11.56165 2.64844,18.27148 0.89563,0.89558 7.55575,5.29078 10.11719,4.77539 11.52662,14.43997 37.78834,10.3413 57.1582,-1.95703 8.86503,1.612 17.44528,2.52399 25.65235,2.79883 10.10027,12.34445 16.94531,19.7168 16.94531,19.7168 0,10.07874 -13.7676,15.11131 -23.24414,24.58789 -4.26254,1.93207 -11.01998,2.00207 -15.35156,2.11914 -5.25056,0.14187 -20.76146,5.72688 -23.45508,9.54297 -4.46015,6.31844 10.07875,1.36787 12.03906,0.17773 2.83492,-1.72129 3.56087,-2.05761 3.57227,-2.03711 -4.69101,3.38088 -6.38976,4.22737 -7.67383,5.42578 -9.29994,8.68003 -1.31902,5.53724 8.48633,0.082 -0.11915,0.7137 -9.3856,4.16951 -6.38672,8.29297 0.69788,1.07864 4.61413,-0.44336 7.51172,-2.75781 0.42497,-0.0977 7.97318,-4.48344 16.18164,-8.36914 -2.16907,1.40905 -5.02052,3.83679 -7.24414,7.0332 -0.61827,0.8889 -5.2769,5.28746 -2.5586,5.67578 1.83977,0.26279 4.26949,-1.54516 5.67969,-2.10937 3.92554,-1.57024 5.90815,-6.7405 12.0039,-7.01758 2.98965,-0.13589 10.1969,-1.3368 15.90821,-3.29883 12.23185,-6.11595 17.76976,-6.81188 24.68945,-17.1914 2.78392,-4.17588 9.73612,-3.84972 15.11914,-5.03907 14.10534,-3.11651 31.45769,-0.92512 44.2832,11.90039 4.75254,3.96028 -6.28469,20.05051 -10.83984,22.32813 -4.34988,2.17496 -26.40709,-7.19902 -36.34961,10.08398 -3.40641,6.93029 6.56469,0.56384 12.5,-3.4707 -6.24564,4.83657 -7.77122,11.41243 2.16797,7.50781 2.15181,-0.84545 2.03138,-0.33731 7.43945,-4.30273 -5.16603,4.47454 -9.57024,9.84686 -3.53711,9.28125 9.95828,-0.13457 11.62649,-9.55919 14.38086,-7.07031 1.33809,0.89201 3.02826,2.09693 5.6211,0.83593 -2.49985,2.99886 -4.76953,6.18923 -4.76953,7.48047 6.33148,1.58287 13.34465,-1.30723 17.78906,-11.05859 5.27118,0.82245 9.62285,0.11244 18.30859,-21.90039 19.48733,-2.41127 32.10866,-36.37739 43.30664,-33.78906 26.50916,6.12738 51.14238,0.99547 86.41797,11.07421 18.67841,5.3367 18.26969,8.48358 35.82813,9.50977 2.39931,2.07251 7.78168,3.16263 9.91406,5.29492 -5.03937,5.03937 -12.87655,7.65631 -16.81836,9.38086 -15.62245,6.83478 -34.8717,7.12387 -49.42969,14.96289 -5.37979,2.89682 -28.52438,19.90393 -13.65429,16.13672 -1.97316,1.57846 -5.5625,3.86599 -5.5625,5.1582 -2.32011,5.76544 8.9965,1.49472 11.96177,0.63635 2.90084,-0.83972 7.83386,-4.71987 13.25307,-7.67931 -4.28271,4.37368 -7.96875,9.29001 -7.96875,12.18945 2.75159,2.72616 9.8628,-2.74396 13.16797,-5.22266 5.96542,-4.47407 9.70012,-4.93708 15.26562,-9.61914 -5.02391,6.86368 -7.46579,18.39011 -3.55122,14.44789 5.63744,-2.70158 15.59036,-11.78095 20.10591,-15.09242 17.40107,-12.76087 38.78716,-19.89056 55.04102,-30.72656 2.54305,-1.69533 1.71504,-7.49897 1.31054,-10.1836 3.79864,-5.38373 16.95016,-7.16566 18.97071,-8.08398 18.94762,-8.61258 31.91648,-5.17378 47.3789,-20.15625 22.93765,16.30505 46.98973,32.4639 64.21289,50.72461 24.74181,26.23228 18.18255,65.87852 5.06641,83.16797 -18.70519,24.65685 -48.29026,39.05179 -109.98633,31.47461 -34.72014,-4.26414 -37.77561,-5.8194 -67.51367,-13.25391 -17.08718,-4.2718 -76.64071,-28.39392 -91.82227,-33.36719 -6.76657,-2.21664 -17.04156,-3.77423 -27.01367,-6.15234 33.61427,17.21749 47.05973,22.66456 70.92774,32.38867 35.48236,14.45579 78.81738,34.02202 131.67773,36.42383 32.14601,1.46061 60.47112,9.2e-4 85.66797,-15.11719 25.19685,-15.11811 30.0649,-25.89448 38.43555,-46.02929 7.76921,-18.68811 3.43275,-55.91861 -8.19922,-69.87696 -25.19685,-30.23622 -35.27489,-40.31456 -75.58985,-70.55078 0,-30.23622 -9.94094,-75.37226 -24.84765,-101.87305 -31.37288,-55.77393 -81.80586,-99.17188 -145.23242,-99.26364 z"
       style="opacity:1;fill:#ffffff;fill-opacity:1;stroke:none;stroke-width:2;stroke-linecap:round;stroke-linejoin:miter;stroke-dasharray:none;stroke-opacity:1" />
    <g
       id="layer1"
       transform="translate(-26.619617,-23.618458)">
      <g
         id="g3980">
        <path
           style="opacity:1;fill-opacity:0;stroke:#000000;stroke-width:2;stroke-linecap:round;stroke-linejoin:miter;stroke-dasharray:none;stroke-opacity:1"
           inkscape:connector-curvature="0"
           id="path3858"
           d="m 468.76132,485.08021 c 9.97211,2.37811 20.24803,3.93399 27.0146,6.15063 15.18156,4.97327 74.73524,29.09598 91.82242,33.36778 29.73806,7.43451 32.7929,8.98926 67.51304,13.2534 61.69607,7.57718 91.28212,-6.8163 109.98731,-31.47315 13.11614,-17.28945 19.67421,-56.93597 -5.0676,-83.16825 -17.22316,-18.26071 -41.2752,-34.42011 -64.58704,-49.87098" />
        <path
           style="opacity:1;fill-opacity:0;stroke:#000000;stroke-width:2;stroke-linecap:round;stroke-linejoin:miter;stroke-dasharray:none;stroke-opacity:1"
           inkscape:connector-curvature="0"
           id="path3860"
           d="m 711.68157,352.31745 c 40.31496,30.23622 50.3937,40.31496 75.59055,70.55118 11.63197,13.95835 15.96853,51.18878 8.19932,69.87689 -8.37065,20.13481 -13.23869,30.91051 -38.43554,46.02862" />
        <path
           style="opacity:1;fill-opacity:0;stroke:#000000;stroke-width:2;stroke-linecap:round;stroke-linejoin:miter;stroke-dasharray:none;stroke-opacity:1"
           inkscape:connector-curvature="0"
           id="path3862"
           d="m 468.76132,485.08021 c 33.61427,17.21749 47.06127,22.66311 70.92928,32.38722 35.48236,14.45579 78.81566,34.02301 131.67601,36.42482 32.14601,1.46061 60.47244,0 85.66929,-15.11811" />
        <path
           style="opacity:1;fill-opacity:0;stroke:#000000;stroke-width:2;stroke-linecap:round;stroke-linejoin:round;stroke-dasharray:none;stroke-opacity:1"
           inkscape:connector-curvature="0"
           id="path3864-4"
           d="m 206.08798,333.90867 c 15.90919,-35.78282 74.68073,-98.90021 116.18874,-121.80118 13.04906,-7.19946 25.13743,-6.96504 41.15407,-9.25313" />
        <path
           style="opacity:1;fill-opacity:0;stroke:#000000;stroke-width:2;stroke-linecap:round;stroke-linejoin:round;stroke-dasharray:none;stroke-opacity:1"
           inkscape:connector-curvature="0"
           id="path3866-2"
           d="m 213.90105,346.15248 c 5.80767,26.56701 38.91184,23.57622 62.11104,8.84657" />
        <path
           style="opacity:1;fill-opacity:0;stroke:#000000;stroke-width:2;stroke-linecap:round;stroke-linejoin:round;stroke-dasharray:none;stroke-opacity:1"
           inkscape:connector-curvature="0"
           id="path3868-8"
           d="M 276.01209,354.99905 C 346.36851,367.7925 399.24064,337.19934 383.6995,283.95019" />
        <path
           style="opacity:1;fill-opacity:0;stroke:#000000;stroke-width:2;stroke-linecap:round;stroke-linejoin:round;stroke-dasharray:none;stroke-opacity:1"
           inkscape:connector-curvature="0"
           id="path3870-4"
           d="m 206.08798,333.90867 c -3.23503,8.89633 -4.06171,11.56227 2.64813,18.2721 0.89856,0.89851 7.60317,5.32327 10.14597,4.77386" />
        <path
           style="opacity:1;fill-opacity:0;stroke:#000000;stroke-width:2;stroke-linecap:round;stroke-linejoin:miter;stroke-dasharray:none;stroke-opacity:1"
           inkscape:connector-curvature="0"
           id="path3872-0"
           d="m 300.15731,226.85922 c 10.07332,-7.58687 6.99111,-9.1415 7.9471,-14.30382 3.53636,-19.09641 4.16163,-30.50931 19.34259,-44.9311 7.2702,-6.90668 21.38617,-9.41249 26.99907,1.81337 3.42347,6.84689 -9.97723,30.21379 -5.35391,33.99138" />
        <path
           style="opacity:1;fill-opacity:0;stroke:#000000;stroke-width:2;stroke-linecap:round;stroke-linejoin:round;stroke-dasharray:none;stroke-opacity:1"
           inkscape:connector-curvature="0"
           id="path3874-1"
           d="m 340.74505,226.25649 c 3.06252,-10.00203 12.63204,-14.38795 19.5441,-20.95457 16.99027,-16.14057 40.60684,-7.69608 43.99086,15.99191 1.95942,13.71589 -3.0518,29.45493 -10.07874,40.31496 -3.37996,5.22345 -15.11811,10.07874 -27.06162,12.39988" />
        <path
           style="opacity:1;fill-opacity:0;stroke:#000000;stroke-width:1;stroke-linecap:round;stroke-linejoin:round;stroke-dasharray:none;stroke-opacity:1"
           inkscape:connector-curvature="0"
           id="path3876"
           d="m 350.41636,248.82297 c 2.64911,-3.17902 4.69427,-6.56988 7.85794,-9.46996 18.66426,-17.10888 20.80886,2.0983 6.04457,16.9249 -0.89876,1.2357 -3.3071,9.06684 -4.02972,9.06684" />
        <path
           style="opacity:1;fill-opacity:0;stroke:#000000;stroke-width:1;stroke-linecap:round;stroke-linejoin:round;stroke-dasharray:none;stroke-opacity:1"
           inkscape:connector-curvature="0"
           id="path3878"
           d="m 359.88618,230.28616 c 15.12886,-7.56432 24.58123,-0.0967 24.58123,17.5293" />
        <path
           style="opacity:1;fill:#000000;fill-opacity:1;stroke:#000000;stroke-width:2;stroke-linecap:round;stroke-linejoin:round;stroke-dasharray:none;stroke-opacity:1"
           inkscape:connector-curvature="0"
           id="path3880"
           d="m 265.93179,305.78394 c 2.19987,-4.24973 1.5337,-8.63886 8.12845,-13.66143 4.34775,-3.31125 8.35283,-3.4194 13.16959,2.06717" />
        <path
           style="opacity:1;fill:#000000;fill-opacity:1;stroke:#000000;stroke-width:2;stroke-linecap:round;stroke-linejoin:round;stroke-dasharray:none;stroke-opacity:1"
           inkscape:connector-curvature="0"
           id="path3882"
           d="m 265.93179,305.78394 c 10.80586,10.20873 31.87325,-1.24221 20.94515,-12.1236" />
        <path
           style="opacity:1;fill-opacity:0;stroke:#000000;stroke-width:2;stroke-linecap:round;stroke-linejoin:round;stroke-dasharray:none;stroke-opacity:1"
           inkscape:connector-curvature="0"
           id="path3884"
           d="m 391.84812,199.4916 c 13.72171,-1.21342 19.11936,-1.59181 25.16217,-5.21759 23.46665,-14.07999 63.12848,-32.25983 88.05712,-38.49199 80.62991,-20.15748 144.58393,28.55957 181.7666,94.66208 14.90671,26.50079 24.84756,71.63713 24.84756,101.87335" />
        <path
           style="opacity:1;fill-opacity:0;stroke:#000000;stroke-width:2;stroke-linecap:round;stroke-linejoin:round;stroke-dasharray:none;stroke-opacity:1"
           inkscape:connector-curvature="0"
           id="path3886"
           d="m 420.09415,414.35111 c 19.93921,-1.56756 32.74534,-36.51571 44.09442,-33.89246 26.50916,6.12738 51.14089,0.9951 86.41648,11.07384 18.67841,5.33669 18.27014,8.48346 35.80356,9.56899 3.21021,0.19875 -35.49937,-11.34057 -31.02187,-31.93709" />
        <path
           style="opacity:1;fill-opacity:0;stroke:#000000;stroke-width:2;stroke-linecap:round;stroke-linejoin:round;stroke-dasharray:none;stroke-opacity:1"
           inkscape:connector-curvature="0"
           id="path3888-8"
           d="m 314.07941,414.86301 c 12.23185,-6.11595 17.7691,-6.81171 24.68879,-17.19123 2.78392,-4.17588 9.73509,-3.85002 15.11811,-5.03937 14.10534,-3.11651 31.45926,-0.92629 44.28477,11.89922" />
        <path
           style="opacity:1;fill-opacity:0;stroke:#000000;stroke-width:2;stroke-linecap:round;stroke-linejoin:miter;stroke-dasharray:none;stroke-opacity:1"
           inkscape:connector-curvature="0"
           id="path3890-3"
           d="m 629.44428,400.69528 c 3.82394,-5.35352 16.97552,-7.1346 18.99607,-8.05292 18.94762,-8.61258 31.91547,-5.17443 47.75208,-21.01108" />
        <path
           style="opacity:1;fill-opacity:0;stroke:#000000;stroke-width:2;stroke-linecap:round;stroke-linejoin:miter;stroke-dasharray:none;stroke-opacity:1"
           inkscape:connector-curvature="0"
           id="path3892"
           d="m 468.23997,335.86794 c 11.62744,13.79527 12.76018,33.66469 -6.97382,44.8238" />
        <path
           style="opacity:1;fill-opacity:0;stroke:#000000;stroke-width:2;stroke-linecap:round;stroke-linejoin:round;stroke-dasharray:none;stroke-opacity:1"
           inkscape:connector-curvature="0"
           id="path3894"
           d="m 586.45864,400.98281 c 2.3743,2.13184 7.75647,3.22176 9.88885,5.35405" />
        <path
           style="opacity:1;fill-opacity:0;stroke:#000000;stroke-width:2;stroke-linecap:round;stroke-linejoin:round;stroke-dasharray:none;stroke-opacity:1"
           inkscape:connector-curvature="0"
           id="path3896-5"
           d="m 314.07941,414.86301 c -5.71131,1.96203 -12.9195,3.16216 -15.90915,3.29805 -6.09577,0.27708 -8.07823,5.4479 -12.00377,7.01814 -1.4102,0.56421 -3.83914,2.37099 -5.67891,2.1082 -2.7183,-0.38832 1.93941,-4.78645 2.55768,-5.67535 3.63872,-5.23057 8.98103,-8.43342 14.9819,-10.43365" />
        <path
           style="opacity:1;fill-opacity:0;stroke:#000000;stroke-width:2;stroke-linecap:round;stroke-linejoin:round;stroke-dasharray:none;stroke-opacity:1"
           inkscape:connector-curvature="0"
           id="path3898-9"
           d="m 295.36468,402.10291 c -4.26254,1.93207 -11.01989,2.00253 -15.35147,2.1196 -5.25056,0.14187 -20.76019,5.72596 -23.45381,9.54205 -4.46015,6.31844 10.07872,1.36835 12.03903,0.17821 2.83492,-1.72129 3.55963,-2.05748 7.14208,-4.07392" />
        <path
           style="opacity:1;fill-opacity:0;stroke:#000000;stroke-width:2;stroke-linecap:round;stroke-linejoin:round;stroke-dasharray:none;stroke-opacity:1"
           inkscape:connector-curvature="0"
           id="path3900-3"
           d="m 288.48804,415.22002 c -6.06753,2.81086 -17.26512,9.62679 -13.85716,7.31424" />
        <path
           style="opacity:1;fill-opacity:0;stroke:#000000;stroke-width:2;stroke-linecap:round;stroke-linejoin:round;stroke-dasharray:none;stroke-opacity:1"
           inkscape:connector-curvature="0"
           id="path3902-9"
           d="m 267.30678,421.26579 c -4.12913,1.60284 -12.11048,4.74579 -2.81054,-3.93427 1.28407,-1.19841 2.98222,-2.04483 4.10219,-3.38875" />
        <path
           style="opacity:1;fill-opacity:0;stroke:#000000;stroke-width:2;stroke-linecap:round;stroke-linejoin:round;stroke-dasharray:none;stroke-opacity:1"
           inkscape:connector-curvature="0"
           id="path3904-5"
           d="m 400.10876,429.84679 c -5.49575,3.71334 -15.3254,14.6664 -15.3254,17.35867" />
        <path
           style="opacity:1;fill-opacity:0;stroke:#000000;stroke-width:2;stroke-linecap:round;stroke-linejoin:round;stroke-dasharray:none;stroke-opacity:1"
           inkscape:connector-curvature="0"
           id="path3906-7"
           d="m 384.78336,447.20546 c 6.33148,1.58287 13.34442,-1.30639 17.82127,-11.80203" />
        <path
           style="opacity:1;fill-opacity:0;stroke:#000000;stroke-width:2;stroke-linecap:round;stroke-linejoin:round;stroke-dasharray:none;stroke-opacity:1"
           inkscape:connector-curvature="0"
           id="path3908-6"
           d="m 402.53975,436.89199 c 11.819,1.09475 13.50971,-12.62486 17.5544,-22.54088" />
        <path
           style="opacity:1;fill-opacity:0;stroke:#000000;stroke-width:2;stroke-linecap:round;stroke-linejoin:round;stroke-dasharray:none;stroke-opacity:1"
           inkscape:connector-curvature="0"
           id="path3910-4"
           d="m 398.17108,404.53163 c 4.75252,3.96027 -6.28561,20.05106 -10.84076,22.32868 -4.34988,2.17496 -26.40664,-7.19881 -36.34916,10.08419" />
        <path
           style="opacity:1;fill-opacity:0;stroke:#000000;stroke-width:2;stroke-linecap:round;stroke-linejoin:round;stroke-dasharray:none;stroke-opacity:1"
           inkscape:connector-curvature="0"
           id="path3912-4"
           d="m 350.98116,436.9445 c -3.90257,7.93971 9.75616,-1.57456 13.01764,-4.02058" />
        <path
           style="opacity:1;fill-opacity:0;stroke:#000000;stroke-width:2;stroke-linecap:round;stroke-linejoin:round;stroke-dasharray:none;stroke-opacity:1"
           inkscape:connector-curvature="0"
           id="path3914-1"
           d="m 391.77437,436.78491 c -2.47403,5.95934 -5.63137,3.57887 -7.84286,2.10461" />
        <path
           style="opacity:1;fill-opacity:0;stroke:#000000;stroke-width:2;stroke-linecap:round;stroke-linejoin:round;stroke-dasharray:none;stroke-opacity:1"
           inkscape:connector-curvature="0"
           id="path3916-1"
           d="m 383.93151,438.88952 c -2.75437,-2.48888 -4.42122,6.93669 -14.3795,7.07126" />
        <path
           style="opacity:1;fill-opacity:0;stroke:#000000;stroke-width:2;stroke-linecap:round;stroke-linejoin:round;stroke-dasharray:none;stroke-opacity:1"
           inkscape:connector-curvature="0"
           id="path3918-3"
           d="m 379.37572,431.96536 c -5.78657,3.49885 -18.43628,14.80285 -9.82371,13.99542" />
        <path
           style="opacity:1;fill-opacity:0;stroke:#000000;stroke-width:2;stroke-linecap:round;stroke-linejoin:round;stroke-dasharray:none;stroke-opacity:1"
           inkscape:connector-curvature="0"
           id="path3920-3"
           d="m 379.37572,431.96536 c -12.24146,9.31853 -10.94183,7.92226 -13.72628,9.01628 -11.06786,4.34801 -7.93971,-4.30628 1.884,-10.09285" />
        <path
           style="opacity:1;fill-opacity:0;stroke:#000000;stroke-width:2;stroke-linecap:round;stroke-linejoin:round;stroke-dasharray:none;stroke-opacity:1"
           inkscape:connector-curvature="0"
           id="path3922"
           d="m 629.49489,400.75571 c 0.37919,2.65441 1.20706,8.45804 -1.33599,10.15337 -16.25386,10.836 -37.64053,17.96625 -55.0416,30.72712 -4.51555,3.31147 -14.70212,12.59556 -20.5738,15.49716" />
        <path
           style="opacity:1;fill-opacity:0;stroke:#000000;stroke-width:2;stroke-linecap:round;stroke-linejoin:round;stroke-dasharray:none;stroke-opacity:1"
           inkscape:connector-curvature="0"
           id="path3924"
           d="m 516.44538,446.81756 c -14.87009,3.76721 8.27421,-13.23935 13.654,-16.13617 14.55799,-7.83902 33.8081,-8.12796 49.43055,-14.96274 3.94181,-1.72455 11.77819,-4.34242 16.81756,-9.38179" />
        <path
           style="opacity:1;fill-opacity:0;stroke:#000000;stroke-width:2;stroke-linecap:round;stroke-linejoin:round;stroke-dasharray:none;stroke-opacity:1"
           inkscape:connector-curvature="0"
           id="path3926-3"
           d="m 554.02776,433.33926 c -6.66365,0 -25.89779,17.15943 -25.89779,23.78372" />
        <path
           style="opacity:1;fill-opacity:0;stroke:#000000;stroke-width:2;stroke-linecap:round;stroke-linejoin:round;stroke-dasharray:none;stroke-opacity:1"
           inkscape:connector-curvature="0"
           id="path3928-0"
           d="m 528.12997,457.12298 c 2.75159,2.72616 9.8622,-2.74437 13.16737,-5.22307 7.1253,-5.34399 11.05665,-4.94158 17.52192,-12.21502" />
        <path
           style="opacity:1;fill-opacity:0;stroke:#000000;stroke-width:2;stroke-linecap:round;stroke-linejoin:round;stroke-dasharray:none;stroke-opacity:1"
           inkscape:connector-curvature="0"
           id="path3930"
           d="m 553.01198,456.73331 c -5.05981,5.05967 3.03108,-17.85878 10.15817,-20.97168" />
        <path
           style="opacity:1;fill-opacity:0;stroke:#000000;stroke-width:2;stroke-linecap:round;stroke-linejoin:round;stroke-dasharray:none;stroke-opacity:1"
           inkscape:connector-curvature="0"
           id="path3932"
           d="m 533.5037,433.79409 c -1.97316,1.57846 -22.61958,16.8905 -22.61958,18.18271" />
        <path
           style="opacity:1;fill-opacity:0;stroke:#000000;stroke-width:2;stroke-linecap:round;stroke-linejoin:round;stroke-dasharray:none;stroke-opacity:1"
           inkscape:connector-curvature="0"
           id="path3934-7"
           d="m 510.88412,451.9768 c -2.32011,5.76544 3.53239,3.5805 6.49766,2.72213 5.20662,-1.50717 17.10588,-6.76202 21.22508,-11.705" />
        <path
           style="opacity:1;fill-opacity:0;stroke:#000000;stroke-width:2;stroke-linecap:round;stroke-linejoin:round;stroke-dasharray:none;stroke-opacity:1"
           inkscape:connector-curvature="0"
           id="path3936-7"
           d="m 302.59536,358.71874 c 12.37665,15.47085 16.01536,18.79556 16.01536,18.79556 0,10.07874 -13.7695,15.11203 -23.24604,24.58861" />
        <path
           style="opacity:1;fill-opacity:0;stroke:#000000;stroke-width:1;stroke-linecap:round;stroke-linejoin:round;stroke-dasharray:none;stroke-opacity:1"
           inkscape:connector-curvature="0"
           id="path3938"
           d="m 277.78753,353.5159 c 13.51992,10.80081 51.08875,34.3252 51.08875,52.07653" />
        <path
           style="opacity:1;fill-opacity:0;stroke:#000000;stroke-width:1;stroke-linecap:round;stroke-linejoin:round;stroke-dasharray:none;stroke-opacity:1"
           inkscape:connector-curvature="0"
           id="path3940"
           d="m 264.36278,353.90148 c 3.56996,0 10.95342,8.84154 13.74326,11.16645 8.33974,6.94974 35.64657,32.90843 35.64657,45.09489" />
        <path
           style="opacity:1;fill-opacity:0;stroke:#000000;stroke-width:2;stroke-linecap:round;stroke-linejoin:round;stroke-dasharray:none;stroke-opacity:1"
           inkscape:connector-curvature="0"
           id="path3942-4"
           d="m 278.65922,413.5611 c -5.79537,4.56605 -15.06227,8.0211 -12.06339,12.14456 0.7398,1.14342 5.11114,-0.62235 8.03505,-3.1714" />
        <path
           style="opacity:1;fill-opacity:0;stroke:#000000;stroke-width:1;stroke-linecap:round;stroke-linejoin:round;stroke-dasharray:none;stroke-opacity:1"
           inkscape:connector-curvature="0"
           id="path3944"
           d="m 256.84694,354.33093 c 8.65694,6.49261 26.41282,24.69491 30.70759,39.29703" />
        <path
           style="opacity:1;fill-opacity:0;stroke:#000000;stroke-width:1;stroke-linecap:round;stroke-linejoin:round;stroke-dasharray:none;stroke-opacity:1"
           inkscape:connector-curvature="0"
           id="path3946"
           d="m 253.19639,356.04876 c 5.66983,8.50475 20.82962,28.98976 24.90965,36.93502" />
        <path
           style="opacity:1;fill-opacity:0;stroke:#000000;stroke-width:1;stroke-linecap:round;stroke-linejoin:miter;stroke-dasharray:none;stroke-opacity:1"
           inkscape:connector-curvature="0"
           id="path3948"
           d="m 249.11637,364.20882 c 4.247,-1.41563 14.6022,21.05973 14.6022,24.69492" />
        <path
           style="opacity:1;fill-opacity:0;stroke:#000000;stroke-width:1;stroke-linecap:round;stroke-linejoin:miter;stroke-dasharray:none;stroke-opacity:1"
           inkscape:connector-curvature="0"
           id="path3950"
           d="m 240.3121,364.20882 c 5.61862,5.6187 6.76046,18.90456 3.43581,25.55403" />
        <path
           style="opacity:1;fill-opacity:0;stroke:#000000;stroke-width:1;stroke-linecap:round;stroke-linejoin:miter;stroke-dasharray:none;stroke-opacity:1"
           inkscape:connector-curvature="0"
           id="path3952"
           d="m 232.02295,358.36656 c 0.95407,7.63257 -0.0439,14.64132 -4.19744,21.28695" />
        <path
           style="opacity:1;fill-opacity:0;stroke:#000000;stroke-width:1;stroke-linecap:round;stroke-linejoin:miter;stroke-dasharray:none;stroke-opacity:1"
           inkscape:connector-curvature="0"
           id="path3954"
           d="m 237.11986,358.66626 c 0,7.66505 1.49909,15.54349 1.49909,23.38598" />
        <path
           style="opacity:1;fill-opacity:0;stroke:#000000;stroke-width:1;stroke-linecap:round;stroke-linejoin:miter;stroke-dasharray:none;stroke-opacity:1"
           inkscape:connector-curvature="0"
           id="path3956"
           d="m 226.32641,358.36656 c 0,5.78075 -4.67229,8.21177 -8.99454,11.09321" />
        <path
           style="opacity:1;fill-opacity:0;stroke:#000000;stroke-width:1;stroke-linecap:round;stroke-linejoin:miter;stroke-dasharray:none;stroke-opacity:1"
           inkscape:connector-curvature="0"
           id="path3958"
           d="m 209.35183,327.08378 c -0.34465,-1.33768 -7.6641,-0.13889 -9.49455,0.90707" />
        <path
           style="opacity:1;fill-opacity:0;stroke:#000000;stroke-width:1;stroke-linecap:round;stroke-linejoin:miter;stroke-dasharray:none;stroke-opacity:1"
           inkscape:connector-curvature="0"
           id="path3960"
           d="m 212.28752,321.54554 c -5.06761,-1.68918 -9.04801,-3.86011 -14.50194,-2.30184" />
        <path
           style="opacity:1;fill-opacity:0;stroke:#000000;stroke-width:1;stroke-linecap:round;stroke-linejoin:miter;stroke-dasharray:none;stroke-opacity:1"
           inkscape:connector-curvature="0"
           id="path3962"
           d="m 214.8196,318.55318 c -5.18375,-12.95944 -25.41214,-20.29154 -38.44165,-17.03409" />
        <path
           style="opacity:1;fill-opacity:0;stroke:#000000;stroke-width:1;stroke-linecap:round;stroke-linejoin:miter;stroke-dasharray:none;stroke-opacity:1"
           inkscape:connector-curvature="0"
           id="path3964"
           d="m 217.81206,313.7192 c -3.92642,-11.77931 -9.98889,-15.93758 -20.25667,-22.09819" />
        <path
           style="opacity:1;fill-opacity:0;stroke:#000000;stroke-width:1;stroke-linecap:round;stroke-linejoin:miter;stroke-dasharray:none;stroke-opacity:1"
           inkscape:connector-curvature="0"
           id="path3966"
           d="m 224.48756,302.67001 c 0,-17.57082 -11.87034,-32.75214 -27.39256,-40.51331" />
        <path
           style="opacity:1;fill-opacity:0;stroke:#000000;stroke-width:1;stroke-linecap:round;stroke-linejoin:miter;stroke-dasharray:none;stroke-opacity:1"
           inkscape:connector-curvature="0"
           id="path3968"
           d="m 229.87016,297.39687 c -0.77881,-22.65847 1.58279,-38.19504 -9.52601,-57.79876" />
        <path
           style="opacity:1;fill-opacity:0;stroke:#000000;stroke-width:1;stroke-linecap:round;stroke-linejoin:miter;stroke-dasharray:none;stroke-opacity:1"
           inkscape:connector-curvature="0"
           id="path3970"
           d="m 260.21683,261.87624 c 5.12339,-16.05101 7.06932,-37.06017 1.79162,-52.89337" />
        <path
           style="opacity:1;fill-opacity:0;stroke:#000000;stroke-width:1;stroke-linecap:round;stroke-linejoin:miter;stroke-dasharray:none;stroke-opacity:1"
           inkscape:connector-curvature="0"
           id="path3972"
           d="m 248.33411,274.025 c 3.99397,-14.3693 7.93938,-36.70509 -2.43892,-49.15895" />
        <path
           style="opacity:1;fill-opacity:0;stroke:#000000;stroke-width:1;stroke-linecap:round;stroke-linejoin:miter;stroke-dasharray:none;stroke-opacity:1"
           inkscape:connector-curvature="0"
           id="path3974"
           d="m 234.97302,290.69025 c 8.75467,-14.82457 5.49335,-62.2734 -3.34959,-76.64309" />
        <path
           style="opacity:1;fill-opacity:0;stroke:#000000;stroke-width:1;stroke-linecap:round;stroke-linejoin:round;stroke-dasharray:none;stroke-opacity:1"
           inkscape:connector-curvature="0"
           id="path3976"
           d="m 287.70169,343.6816 c 6.96062,0.99434 11.40114,2.40257 14.58415,4.14327 10.59476,5.79402 26.77554,14.22475 31.32278,26.35085" />
        <path
           style="opacity:1;fill-opacity:0;stroke:#000000;stroke-width:1;stroke-linecap:round;stroke-linejoin:round;stroke-dasharray:none;stroke-opacity:1"
           inkscape:connector-curvature="0"
           id="path3978"
           d="m 282.56409,347.49327 c 1.58301,2.21629 19.55602,13.25838 24.03071,20.55048" />
      </g>
    </g>
  </g>
</svg>
